<?xml version="1.0" encoding="UTF-8" standalone="no"?>
<!DOCTYPE svg PUBLIC "-//W3C//DTD SVG 1.1//EN"
 "http://www.w3.org/Graphics/SVG/1.1/DTD/svg11.dtd">
<!-- Generated by graphviz version 2.38.0 (20140413.2041)
 -->
<!-- Title: snakemake_dag Pages: 1 -->
<svg width="894pt" height="476pt"
 viewBox="0.00 0.00 894.00 476.00" xmlns="http://www.w3.org/2000/svg" xmlns:xlink="http://www.w3.org/1999/xlink">
<g id="graph0" class="graph" transform="scale(1 1) rotate(0) translate(4 472)">
<title>snakemake_dag</title>
<polygon fill="white" stroke="none" points="-4,4 -4,-472 890,-472 890,4 -4,4"/>
<!-- 0 -->
<g id="node1" class="node"><title>0</title>
<path fill="none" stroke="#59d856" stroke-width="2" d="M418.5,-36C418.5,-36 388.5,-36 388.5,-36 382.5,-36 376.5,-30 376.5,-24 376.5,-24 376.5,-12 376.5,-12 376.5,-6 382.5,-0 388.5,-0 388.5,-0 418.5,-0 418.5,-0 424.5,-0 430.5,-6 430.5,-12 430.5,-12 430.5,-24 430.5,-24 430.5,-30 424.5,-36 418.5,-36"/>
<text text-anchor="middle" x="403.5" y="-15.5" font-family="sans" font-size="10.00">all</text>
</g>
<!-- 1 -->
<g id="node2" class="node"><title>1</title>
<path fill="none" stroke="#56d89a" stroke-width="2" d="M391.5,-108C391.5,-108 361.5,-108 361.5,-108 355.5,-108 349.5,-102 349.5,-96 349.5,-96 349.5,-84 349.5,-84 349.5,-78 355.5,-72 361.5,-72 361.5,-72 391.5,-72 391.5,-72 397.5,-72 403.5,-78 403.5,-84 403.5,-84 403.5,-96 403.5,-96 403.5,-102 397.5,-108 391.5,-108"/>
<text text-anchor="middle" x="376.5" y="-87.5" font-family="sans" font-size="10.00">multiqc</text>
</g>
<!-- 1&#45;&gt;0 -->
<g id="edge1" class="edge"><title>1&#45;&gt;0</title>
<path fill="none" stroke="grey" stroke-width="2" d="M383.174,-71.6966C386.215,-63.8132 389.883,-54.3042 393.261,-45.5464"/>
<polygon fill="grey" stroke="grey" stroke-width="2" points="396.569,-46.6939 396.903,-36.1043 390.038,-44.1748 396.569,-46.6939"/>
</g>
<!-- 2 -->
<g id="node3" class="node"><title>2</title>
<path fill="none" stroke="#569ad8" stroke-width="2" d="M465.5,-180C465.5,-180 397.5,-180 397.5,-180 391.5,-180 385.5,-174 385.5,-168 385.5,-168 385.5,-156 385.5,-156 385.5,-150 391.5,-144 397.5,-144 397.5,-144 465.5,-144 465.5,-144 471.5,-144 477.5,-150 477.5,-156 477.5,-156 477.5,-168 477.5,-168 477.5,-174 471.5,-180 465.5,-180"/>
<text text-anchor="middle" x="431.5" y="-159.5" font-family="sans" font-size="10.00">read_loss_plots</text>
</g>
<!-- 2&#45;&gt;0 -->
<g id="edge2" class="edge"><title>2&#45;&gt;0</title>
<path fill="none" stroke="grey" stroke-width="2" d="M428.123,-143.871C423.329,-119.564 414.507,-74.8187 408.827,-46.0132"/>
<polygon fill="grey" stroke="grey" stroke-width="2" points="412.258,-45.3232 406.889,-36.1893 405.39,-46.6775 412.258,-45.3232"/>
</g>
<!-- 3 -->
<g id="node4" class="node"><title>3</title>
<path fill="none" stroke="#97d856" stroke-width="2" d="M351.5,-180C351.5,-180 321.5,-180 321.5,-180 315.5,-180 309.5,-174 309.5,-168 309.5,-168 309.5,-156 309.5,-156 309.5,-150 315.5,-144 321.5,-144 321.5,-144 351.5,-144 351.5,-144 357.5,-144 363.5,-150 363.5,-156 363.5,-156 363.5,-168 363.5,-168 363.5,-174 357.5,-180 351.5,-180"/>
<text text-anchor="middle" x="336.5" y="-159.5" font-family="sans" font-size="10.00">fastqc</text>
</g>
<!-- 3&#45;&gt;1 -->
<g id="edge3" class="edge"><title>3&#45;&gt;1</title>
<path fill="none" stroke="grey" stroke-width="2" d="M346.388,-143.697C350.989,-135.644 356.56,-125.894 361.653,-116.982"/>
<polygon fill="grey" stroke="grey" stroke-width="2" points="364.804,-118.523 366.726,-108.104 358.726,-115.05 364.804,-118.523"/>
</g>
<!-- 4 -->
<g id="node5" class="node"><title>4</title>
<path fill="none" stroke="#97d856" stroke-width="2" d="M199.5,-180C199.5,-180 169.5,-180 169.5,-180 163.5,-180 157.5,-174 157.5,-168 157.5,-168 157.5,-156 157.5,-156 157.5,-150 163.5,-144 169.5,-144 169.5,-144 199.5,-144 199.5,-144 205.5,-144 211.5,-150 211.5,-156 211.5,-156 211.5,-168 211.5,-168 211.5,-174 205.5,-180 199.5,-180"/>
<text text-anchor="middle" x="184.5" y="-159.5" font-family="sans" font-size="10.00">fastqc</text>
</g>
<!-- 4&#45;&gt;1 -->
<g id="edge4" class="edge"><title>4&#45;&gt;1</title>
<path fill="none" stroke="grey" stroke-width="2" d="M211.602,-151.119C245.098,-138.907 302.246,-118.072 339.691,-104.42"/>
<polygon fill="grey" stroke="grey" stroke-width="2" points="341.03,-107.657 349.226,-100.944 338.632,-101.081 341.03,-107.657"/>
</g>
<!-- 5 -->
<g id="node6" class="node"><title>5</title>
<path fill="none" stroke="#97d856" stroke-width="2" d="M541.5,-180C541.5,-180 511.5,-180 511.5,-180 505.5,-180 499.5,-174 499.5,-168 499.5,-168 499.5,-156 499.5,-156 499.5,-150 505.5,-144 511.5,-144 511.5,-144 541.5,-144 541.5,-144 547.5,-144 553.5,-150 553.5,-156 553.5,-156 553.5,-168 553.5,-168 553.5,-174 547.5,-180 541.5,-180"/>
<text text-anchor="middle" x="526.5" y="-159.5" font-family="sans" font-size="10.00">fastqc</text>
</g>
<!-- 5&#45;&gt;1 -->
<g id="edge5" class="edge"><title>5&#45;&gt;1</title>
<path fill="none" stroke="grey" stroke-width="2" d="M499.336,-148.324C475.2,-137.06 439.719,-120.502 413.088,-108.075"/>
<polygon fill="grey" stroke="grey" stroke-width="2" points="414.257,-104.758 403.715,-103.7 411.297,-111.101 414.257,-104.758"/>
</g>
<!-- 6 -->
<g id="node7" class="node"><title>6</title>
<path fill="none" stroke="#97d856" stroke-width="2" d="M693.5,-180C693.5,-180 663.5,-180 663.5,-180 657.5,-180 651.5,-174 651.5,-168 651.5,-168 651.5,-156 651.5,-156 651.5,-150 657.5,-144 663.5,-144 663.5,-144 693.5,-144 693.5,-144 699.5,-144 705.5,-150 705.5,-156 705.5,-156 705.5,-168 705.5,-168 705.5,-174 699.5,-180 693.5,-180"/>
<text text-anchor="middle" x="678.5" y="-159.5" font-family="sans" font-size="10.00">fastqc</text>
</g>
<!-- 6&#45;&gt;1 -->
<g id="edge6" class="edge"><title>6&#45;&gt;1</title>
<path fill="none" stroke="grey" stroke-width="2" d="M651.434,-154.726C597.237,-142.164 475.321,-113.906 413.682,-99.6183"/>
<polygon fill="grey" stroke="grey" stroke-width="2" points="414.146,-96.1332 403.614,-97.2847 412.566,-102.952 414.146,-96.1332"/>
</g>
<!-- 7 -->
<g id="node8" class="node"><title>7</title>
<path fill="none" stroke="#d89556" stroke-width="2" d="M382.5,-396C382.5,-396 342.5,-396 342.5,-396 336.5,-396 330.5,-390 330.5,-384 330.5,-384 330.5,-372 330.5,-372 330.5,-366 336.5,-360 342.5,-360 342.5,-360 382.5,-360 382.5,-360 388.5,-360 394.5,-366 394.5,-372 394.5,-372 394.5,-384 394.5,-384 394.5,-390 388.5,-396 382.5,-396"/>
<text text-anchor="middle" x="362.5" y="-375.5" font-family="sans" font-size="10.00">bbduk_pe</text>
</g>
<!-- 7&#45;&gt;2 -->
<g id="edge7" class="edge"><title>7&#45;&gt;2</title>
<path fill="none" stroke="grey" stroke-width="2" d="M382.503,-359.845C392.269,-350.31 403.237,-337.634 409.5,-324 429.497,-280.47 432.646,-223.852 432.498,-190.661"/>
<polygon fill="grey" stroke="grey" stroke-width="2" points="435.993,-190.301 432.342,-180.355 428.994,-190.407 435.993,-190.301"/>
</g>
<!-- 15 -->
<g id="node16" class="node"><title>15</title>
<path fill="none" stroke="#d85656" stroke-width="2" d="M294,-324C294,-324 241,-324 241,-324 235,-324 229,-318 229,-312 229,-312 229,-300 229,-300 229,-294 235,-288 241,-288 241,-288 294,-288 294,-288 300,-288 306,-294 306,-300 306,-300 306,-312 306,-312 306,-318 300,-324 294,-324"/>
<text text-anchor="middle" x="267.5" y="-309" font-family="sans" font-size="10.00">derep_reads</text>
<text text-anchor="middle" x="267.5" y="-298" font-family="sans" font-size="10.00">read: r1</text>
</g>
<!-- 7&#45;&gt;15 -->
<g id="edge39" class="edge"><title>7&#45;&gt;15</title>
<path fill="none" stroke="grey" stroke-width="2" d="M339.017,-359.697C326.937,-350.796 312.046,-339.823 298.984,-330.199"/>
<polygon fill="grey" stroke="grey" stroke-width="2" points="300.84,-327.219 290.713,-324.104 296.687,-332.854 300.84,-327.219"/>
</g>
<!-- 16 -->
<g id="node17" class="node"><title>16</title>
<path fill="none" stroke="#d85656" stroke-width="2" d="M389,-324C389,-324 336,-324 336,-324 330,-324 324,-318 324,-312 324,-312 324,-300 324,-300 324,-294 330,-288 336,-288 336,-288 389,-288 389,-288 395,-288 401,-294 401,-300 401,-300 401,-312 401,-312 401,-318 395,-324 389,-324"/>
<text text-anchor="middle" x="362.5" y="-309" font-family="sans" font-size="10.00">derep_reads</text>
<text text-anchor="middle" x="362.5" y="-298" font-family="sans" font-size="10.00">read: r2</text>
</g>
<!-- 7&#45;&gt;16 -->
<g id="edge40" class="edge"><title>7&#45;&gt;16</title>
<path fill="none" stroke="grey" stroke-width="2" d="M362.5,-359.697C362.5,-351.983 362.5,-342.712 362.5,-334.112"/>
<polygon fill="grey" stroke="grey" stroke-width="2" points="366,-334.104 362.5,-324.104 359,-334.104 366,-334.104"/>
</g>
<!-- 8 -->
<g id="node9" class="node"><title>8</title>
<path fill="none" stroke="#d89556" stroke-width="2" d="M153.5,-396C153.5,-396 113.5,-396 113.5,-396 107.5,-396 101.5,-390 101.5,-384 101.5,-384 101.5,-372 101.5,-372 101.5,-366 107.5,-360 113.5,-360 113.5,-360 153.5,-360 153.5,-360 159.5,-360 165.5,-366 165.5,-372 165.5,-372 165.5,-384 165.5,-384 165.5,-390 159.5,-396 153.5,-396"/>
<text text-anchor="middle" x="133.5" y="-375.5" font-family="sans" font-size="10.00">bbduk_pe</text>
</g>
<!-- 8&#45;&gt;2 -->
<g id="edge8" class="edge"><title>8&#45;&gt;2</title>
<path fill="none" stroke="grey" stroke-width="2" d="M148.948,-359.994C158.22,-349.686 170.179,-336.21 180.5,-324 220.292,-276.929 216.72,-250.936 267.5,-216 276.782,-209.614 331.906,-192.398 375.72,-179.305"/>
<polygon fill="grey" stroke="grey" stroke-width="2" points="376.856,-182.619 385.442,-176.411 374.859,-175.909 376.856,-182.619"/>
</g>
<!-- 17 -->
<g id="node18" class="node"><title>17</title>
<path fill="none" stroke="#d85656" stroke-width="2" d="M65,-324C65,-324 12,-324 12,-324 6,-324 0,-318 0,-312 0,-312 0,-300 0,-300 0,-294 6,-288 12,-288 12,-288 65,-288 65,-288 71,-288 77,-294 77,-300 77,-300 77,-312 77,-312 77,-318 71,-324 65,-324"/>
<text text-anchor="middle" x="38.5" y="-309" font-family="sans" font-size="10.00">derep_reads</text>
<text text-anchor="middle" x="38.5" y="-298" font-family="sans" font-size="10.00">read: r1</text>
</g>
<!-- 8&#45;&gt;17 -->
<g id="edge41" class="edge"><title>8&#45;&gt;17</title>
<path fill="none" stroke="grey" stroke-width="2" d="M110.017,-359.697C97.9374,-350.796 83.0458,-339.823 69.9842,-330.199"/>
<polygon fill="grey" stroke="grey" stroke-width="2" points="71.8398,-327.219 61.713,-324.104 67.6874,-332.854 71.8398,-327.219"/>
</g>
<!-- 18 -->
<g id="node19" class="node"><title>18</title>
<path fill="none" stroke="#d85656" stroke-width="2" d="M160,-324C160,-324 107,-324 107,-324 101,-324 95,-318 95,-312 95,-312 95,-300 95,-300 95,-294 101,-288 107,-288 107,-288 160,-288 160,-288 166,-288 172,-294 172,-300 172,-300 172,-312 172,-312 172,-318 166,-324 160,-324"/>
<text text-anchor="middle" x="133.5" y="-309" font-family="sans" font-size="10.00">derep_reads</text>
<text text-anchor="middle" x="133.5" y="-298" font-family="sans" font-size="10.00">read: r2</text>
</g>
<!-- 8&#45;&gt;18 -->
<g id="edge42" class="edge"><title>8&#45;&gt;18</title>
<path fill="none" stroke="grey" stroke-width="2" d="M133.5,-359.697C133.5,-351.983 133.5,-342.712 133.5,-334.112"/>
<polygon fill="grey" stroke="grey" stroke-width="2" points="137,-334.104 133.5,-324.104 130,-334.104 137,-334.104"/>
</g>
<!-- 9 -->
<g id="node10" class="node"><title>9</title>
<path fill="none" stroke="#d89556" stroke-width="2" d="M611.5,-396C611.5,-396 571.5,-396 571.5,-396 565.5,-396 559.5,-390 559.5,-384 559.5,-384 559.5,-372 559.5,-372 559.5,-366 565.5,-360 571.5,-360 571.5,-360 611.5,-360 611.5,-360 617.5,-360 623.5,-366 623.5,-372 623.5,-372 623.5,-384 623.5,-384 623.5,-390 617.5,-396 611.5,-396"/>
<text text-anchor="middle" x="591.5" y="-375.5" font-family="sans" font-size="10.00">bbduk_pe</text>
</g>
<!-- 9&#45;&gt;2 -->
<g id="edge9" class="edge"><title>9&#45;&gt;2</title>
<path fill="none" stroke="grey" stroke-width="2" d="M612.767,-359.701C622.609,-350.305 633.263,-337.798 638.5,-324 656.951,-275.384 634.446,-248.054 593.5,-216 584.754,-209.153 530.541,-192.106 487.203,-179.18"/>
<polygon fill="grey" stroke="grey" stroke-width="2" points="488.164,-175.814 477.581,-176.324 486.172,-182.524 488.164,-175.814"/>
</g>
<!-- 19 -->
<g id="node20" class="node"><title>19</title>
<path fill="none" stroke="#d85656" stroke-width="2" d="M523,-324C523,-324 470,-324 470,-324 464,-324 458,-318 458,-312 458,-312 458,-300 458,-300 458,-294 464,-288 470,-288 470,-288 523,-288 523,-288 529,-288 535,-294 535,-300 535,-300 535,-312 535,-312 535,-318 529,-324 523,-324"/>
<text text-anchor="middle" x="496.5" y="-309" font-family="sans" font-size="10.00">derep_reads</text>
<text text-anchor="middle" x="496.5" y="-298" font-family="sans" font-size="10.00">read: r1</text>
</g>
<!-- 9&#45;&gt;19 -->
<g id="edge43" class="edge"><title>9&#45;&gt;19</title>
<path fill="none" stroke="grey" stroke-width="2" d="M568.017,-359.697C555.937,-350.796 541.046,-339.823 527.984,-330.199"/>
<polygon fill="grey" stroke="grey" stroke-width="2" points="529.84,-327.219 519.713,-324.104 525.687,-332.854 529.84,-327.219"/>
</g>
<!-- 20 -->
<g id="node21" class="node"><title>20</title>
<path fill="none" stroke="#d85656" stroke-width="2" d="M618,-324C618,-324 565,-324 565,-324 559,-324 553,-318 553,-312 553,-312 553,-300 553,-300 553,-294 559,-288 565,-288 565,-288 618,-288 618,-288 624,-288 630,-294 630,-300 630,-300 630,-312 630,-312 630,-318 624,-324 618,-324"/>
<text text-anchor="middle" x="591.5" y="-309" font-family="sans" font-size="10.00">derep_reads</text>
<text text-anchor="middle" x="591.5" y="-298" font-family="sans" font-size="10.00">read: r2</text>
</g>
<!-- 9&#45;&gt;20 -->
<g id="edge44" class="edge"><title>9&#45;&gt;20</title>
<path fill="none" stroke="grey" stroke-width="2" d="M591.5,-359.697C591.5,-351.983 591.5,-342.712 591.5,-334.112"/>
<polygon fill="grey" stroke="grey" stroke-width="2" points="595,-334.104 591.5,-324.104 588,-334.104 595,-334.104"/>
</g>
<!-- 10 -->
<g id="node11" class="node"><title>10</title>
<path fill="none" stroke="#d89556" stroke-width="2" d="M840.5,-396C840.5,-396 800.5,-396 800.5,-396 794.5,-396 788.5,-390 788.5,-384 788.5,-384 788.5,-372 788.5,-372 788.5,-366 794.5,-360 800.5,-360 800.5,-360 840.5,-360 840.5,-360 846.5,-360 852.5,-366 852.5,-372 852.5,-372 852.5,-384 852.5,-384 852.5,-390 846.5,-396 840.5,-396"/>
<text text-anchor="middle" x="820.5" y="-375.5" font-family="sans" font-size="10.00">bbduk_pe</text>
</g>
<!-- 10&#45;&gt;2 -->
<g id="edge10" class="edge"><title>10&#45;&gt;2</title>
<path fill="none" stroke="grey" stroke-width="2" d="M841.767,-359.701C851.609,-350.305 862.263,-337.798 867.5,-324 885.891,-275.542 867.276,-243.75 823.5,-216 760.635,-176.15 563.533,-194.358 490.5,-180 489.585,-179.82 488.663,-179.633 487.737,-179.438"/>
<polygon fill="grey" stroke="grey" stroke-width="2" points="488.223,-175.959 477.693,-177.128 486.654,-182.781 488.223,-175.959"/>
</g>
<!-- 21 -->
<g id="node22" class="node"><title>21</title>
<path fill="none" stroke="#d85656" stroke-width="2" d="M752,-324C752,-324 699,-324 699,-324 693,-324 687,-318 687,-312 687,-312 687,-300 687,-300 687,-294 693,-288 699,-288 699,-288 752,-288 752,-288 758,-288 764,-294 764,-300 764,-300 764,-312 764,-312 764,-318 758,-324 752,-324"/>
<text text-anchor="middle" x="725.5" y="-309" font-family="sans" font-size="10.00">derep_reads</text>
<text text-anchor="middle" x="725.5" y="-298" font-family="sans" font-size="10.00">read: r1</text>
</g>
<!-- 10&#45;&gt;21 -->
<g id="edge45" class="edge"><title>10&#45;&gt;21</title>
<path fill="none" stroke="grey" stroke-width="2" d="M797.017,-359.697C784.937,-350.796 770.046,-339.823 756.984,-330.199"/>
<polygon fill="grey" stroke="grey" stroke-width="2" points="758.84,-327.219 748.713,-324.104 754.687,-332.854 758.84,-327.219"/>
</g>
<!-- 22 -->
<g id="node23" class="node"><title>22</title>
<path fill="none" stroke="#d85656" stroke-width="2" d="M847,-324C847,-324 794,-324 794,-324 788,-324 782,-318 782,-312 782,-312 782,-300 782,-300 782,-294 788,-288 794,-288 794,-288 847,-288 847,-288 853,-288 859,-294 859,-300 859,-300 859,-312 859,-312 859,-318 853,-324 847,-324"/>
<text text-anchor="middle" x="820.5" y="-309" font-family="sans" font-size="10.00">derep_reads</text>
<text text-anchor="middle" x="820.5" y="-298" font-family="sans" font-size="10.00">read: r2</text>
</g>
<!-- 10&#45;&gt;22 -->
<g id="edge46" class="edge"><title>10&#45;&gt;22</title>
<path fill="none" stroke="grey" stroke-width="2" d="M820.5,-359.697C820.5,-351.983 820.5,-342.712 820.5,-334.112"/>
<polygon fill="grey" stroke="grey" stroke-width="2" points="824,-334.104 820.5,-324.104 817,-334.104 824,-334.104"/>
</g>
<!-- 11 -->
<g id="node12" class="node"><title>11</title>
<path fill="none" stroke="#d6d856" stroke-width="2" d="M351.5,-252C351.5,-252 309.5,-252 309.5,-252 303.5,-252 297.5,-246 297.5,-240 297.5,-240 297.5,-228 297.5,-228 297.5,-222 303.5,-216 309.5,-216 309.5,-216 351.5,-216 351.5,-216 357.5,-216 363.5,-222 363.5,-228 363.5,-228 363.5,-240 363.5,-240 363.5,-246 357.5,-252 351.5,-252"/>
<text text-anchor="middle" x="330.5" y="-231.5" font-family="sans" font-size="10.00">interleave</text>
</g>
<!-- 11&#45;&gt;2 -->
<g id="edge11" class="edge"><title>11&#45;&gt;2</title>
<path fill="none" stroke="grey" stroke-width="2" d="M355.207,-215.876C368.169,-206.893 384.228,-195.763 398.265,-186.034"/>
<polygon fill="grey" stroke="grey" stroke-width="2" points="400.472,-188.763 406.698,-180.19 396.485,-183.009 400.472,-188.763"/>
</g>
<!-- 11&#45;&gt;3 -->
<g id="edge23" class="edge"><title>11&#45;&gt;3</title>
<path fill="none" stroke="grey" stroke-width="2" d="M331.983,-215.697C332.644,-207.983 333.439,-198.712 334.176,-190.112"/>
<polygon fill="grey" stroke="grey" stroke-width="2" points="337.667,-190.367 335.034,-180.104 330.693,-189.769 337.667,-190.367"/>
</g>
<!-- 12 -->
<g id="node13" class="node"><title>12</title>
<path fill="none" stroke="#d6d856" stroke-width="2" d="M122.5,-252C122.5,-252 80.5,-252 80.5,-252 74.5,-252 68.5,-246 68.5,-240 68.5,-240 68.5,-228 68.5,-228 68.5,-222 74.5,-216 80.5,-216 80.5,-216 122.5,-216 122.5,-216 128.5,-216 134.5,-222 134.5,-228 134.5,-228 134.5,-240 134.5,-240 134.5,-246 128.5,-252 122.5,-252"/>
<text text-anchor="middle" x="101.5" y="-231.5" font-family="sans" font-size="10.00">interleave</text>
</g>
<!-- 12&#45;&gt;2 -->
<g id="edge12" class="edge"><title>12&#45;&gt;2</title>
<path fill="none" stroke="grey" stroke-width="2" d="M134.635,-220.143C139.25,-218.609 143.964,-217.174 148.5,-216 246.118,-190.74 274.096,-201.999 372.5,-180 373.41,-179.797 374.327,-179.587 375.249,-179.372"/>
<polygon fill="grey" stroke="grey" stroke-width="2" points="376.391,-182.696 385.258,-176.898 374.711,-175.9 376.391,-182.696"/>
</g>
<!-- 12&#45;&gt;4 -->
<g id="edge24" class="edge"><title>12&#45;&gt;4</title>
<path fill="none" stroke="grey" stroke-width="2" d="M122.017,-215.697C132.369,-206.965 145.086,-196.24 156.339,-186.75"/>
<polygon fill="grey" stroke="grey" stroke-width="2" points="158.831,-189.227 164.219,-180.104 154.318,-183.876 158.831,-189.227"/>
</g>
<!-- 13 -->
<g id="node14" class="node"><title>13</title>
<path fill="none" stroke="#d6d856" stroke-width="2" d="M549.5,-252C549.5,-252 507.5,-252 507.5,-252 501.5,-252 495.5,-246 495.5,-240 495.5,-240 495.5,-228 495.5,-228 495.5,-222 501.5,-216 507.5,-216 507.5,-216 549.5,-216 549.5,-216 555.5,-216 561.5,-222 561.5,-228 561.5,-228 561.5,-240 561.5,-240 561.5,-246 555.5,-252 549.5,-252"/>
<text text-anchor="middle" x="528.5" y="-231.5" font-family="sans" font-size="10.00">interleave</text>
</g>
<!-- 13&#45;&gt;2 -->
<g id="edge13" class="edge"><title>13&#45;&gt;2</title>
<path fill="none" stroke="grey" stroke-width="2" d="M504.522,-215.697C492.189,-206.796 476.984,-195.823 463.647,-186.199"/>
<polygon fill="grey" stroke="grey" stroke-width="2" points="465.359,-183.118 455.202,-180.104 461.263,-188.794 465.359,-183.118"/>
</g>
<!-- 13&#45;&gt;5 -->
<g id="edge25" class="edge"><title>13&#45;&gt;5</title>
<path fill="none" stroke="grey" stroke-width="2" d="M528.006,-215.697C527.785,-207.983 527.52,-198.712 527.275,-190.112"/>
<polygon fill="grey" stroke="grey" stroke-width="2" points="530.773,-190 526.989,-180.104 523.776,-190.2 530.773,-190"/>
</g>
<!-- 14 -->
<g id="node15" class="node"><title>14</title>
<path fill="none" stroke="#d6d856" stroke-width="2" d="M778.5,-252C778.5,-252 736.5,-252 736.5,-252 730.5,-252 724.5,-246 724.5,-240 724.5,-240 724.5,-228 724.5,-228 724.5,-222 730.5,-216 736.5,-216 736.5,-216 778.5,-216 778.5,-216 784.5,-216 790.5,-222 790.5,-228 790.5,-228 790.5,-240 790.5,-240 790.5,-246 784.5,-252 778.5,-252"/>
<text text-anchor="middle" x="757.5" y="-231.5" font-family="sans" font-size="10.00">interleave</text>
</g>
<!-- 14&#45;&gt;2 -->
<g id="edge14" class="edge"><title>14&#45;&gt;2</title>
<path fill="none" stroke="grey" stroke-width="2" d="M724.361,-220.155C719.747,-218.619 715.035,-217.18 710.5,-216 614.616,-191.043 587.161,-201.754 490.5,-180 489.59,-179.795 488.673,-179.585 487.751,-179.369"/>
<polygon fill="grey" stroke="grey" stroke-width="2" points="488.293,-175.897 477.744,-176.885 486.607,-182.691 488.293,-175.897"/>
</g>
<!-- 14&#45;&gt;6 -->
<g id="edge26" class="edge"><title>14&#45;&gt;6</title>
<path fill="none" stroke="grey" stroke-width="2" d="M737.972,-215.697C728.118,-206.965 716.014,-196.24 705.304,-186.75"/>
<polygon fill="grey" stroke="grey" stroke-width="2" points="707.609,-184.117 697.803,-180.104 702.967,-189.356 707.609,-184.117"/>
</g>
<!-- 15&#45;&gt;2 -->
<g id="edge15" class="edge"><title>15&#45;&gt;2</title>
<path fill="none" stroke="grey" stroke-width="2" d="M266.977,-287.765C267.313,-268.069 270.838,-235.985 288.5,-216 294.737,-208.943 338.216,-193.358 375.612,-180.905"/>
<polygon fill="grey" stroke="grey" stroke-width="2" points="377.064,-184.111 385.46,-177.65 374.867,-177.465 377.064,-184.111"/>
</g>
<!-- 15&#45;&gt;11 -->
<g id="edge31" class="edge"><title>15&#45;&gt;11</title>
<path fill="none" stroke="grey" stroke-width="2" d="M283.073,-287.697C290.702,-279.22 300.023,-268.864 308.376,-259.583"/>
<polygon fill="grey" stroke="grey" stroke-width="2" points="311.018,-261.879 315.106,-252.104 305.815,-257.196 311.018,-261.879"/>
</g>
<!-- 16&#45;&gt;2 -->
<g id="edge16" class="edge"><title>16&#45;&gt;2</title>
<path fill="none" stroke="grey" stroke-width="2" d="M370.823,-287.871C382.738,-263.35 404.759,-218.032 418.74,-189.259"/>
<polygon fill="grey" stroke="grey" stroke-width="2" points="421.925,-190.713 423.147,-180.189 415.629,-187.654 421.925,-190.713"/>
</g>
<!-- 16&#45;&gt;11 -->
<g id="edge32" class="edge"><title>16&#45;&gt;11</title>
<path fill="none" stroke="grey" stroke-width="2" d="M354.59,-287.697C350.947,-279.728 346.546,-270.1 342.506,-261.264"/>
<polygon fill="grey" stroke="grey" stroke-width="2" points="345.66,-259.744 338.319,-252.104 339.294,-262.654 345.66,-259.744"/>
</g>
<!-- 17&#45;&gt;2 -->
<g id="edge17" class="edge"><title>17&#45;&gt;2</title>
<path fill="none" stroke="grey" stroke-width="2" d="M37.1891,-287.688C36.6885,-267.296 39.3312,-233.933 59.5,-216 111.822,-169.477 303.847,-193.74 372.5,-180 373.415,-179.817 374.336,-179.627 375.261,-179.43"/>
<polygon fill="grey" stroke="grey" stroke-width="2" points="376.352,-182.769 385.301,-177.097 374.768,-175.951 376.352,-182.769"/>
</g>
<!-- 17&#45;&gt;12 -->
<g id="edge33" class="edge"><title>17&#45;&gt;12</title>
<path fill="none" stroke="grey" stroke-width="2" d="M54.073,-287.697C61.7022,-279.22 71.0228,-268.864 79.3757,-259.583"/>
<polygon fill="grey" stroke="grey" stroke-width="2" points="82.018,-261.879 86.1061,-252.104 76.8149,-257.196 82.018,-261.879"/>
</g>
<!-- 18&#45;&gt;2 -->
<g id="edge18" class="edge"><title>18&#45;&gt;2</title>
<path fill="none" stroke="grey" stroke-width="2" d="M138.827,-287.927C146.143,-267.45 161.337,-233.678 186.5,-216 255.397,-167.596 290.63,-199.676 372.5,-180 373.407,-179.782 374.321,-179.559 375.24,-179.332"/>
<polygon fill="grey" stroke="grey" stroke-width="2" points="376.417,-182.643 385.226,-176.757 374.668,-175.865 376.417,-182.643"/>
</g>
<!-- 18&#45;&gt;12 -->
<g id="edge34" class="edge"><title>18&#45;&gt;12</title>
<path fill="none" stroke="grey" stroke-width="2" d="M125.59,-287.697C121.947,-279.728 117.546,-270.1 113.506,-261.264"/>
<polygon fill="grey" stroke="grey" stroke-width="2" points="116.66,-259.744 109.319,-252.104 110.294,-262.654 116.66,-259.744"/>
</g>
<!-- 19&#45;&gt;2 -->
<g id="edge19" class="edge"><title>19&#45;&gt;2</title>
<path fill="none" stroke="grey" stroke-width="2" d="M488.659,-287.871C477.484,-263.457 456.871,-218.426 443.692,-189.635"/>
<polygon fill="grey" stroke="grey" stroke-width="2" points="446.713,-187.825 439.368,-180.189 440.348,-190.739 446.713,-187.825"/>
</g>
<!-- 19&#45;&gt;13 -->
<g id="edge35" class="edge"><title>19&#45;&gt;13</title>
<path fill="none" stroke="grey" stroke-width="2" d="M504.41,-287.697C508.053,-279.728 512.454,-270.1 516.494,-261.264"/>
<polygon fill="grey" stroke="grey" stroke-width="2" points="519.706,-262.654 520.681,-252.104 513.34,-259.744 519.706,-262.654"/>
</g>
<!-- 20&#45;&gt;2 -->
<g id="edge20" class="edge"><title>20&#45;&gt;2</title>
<path fill="none" stroke="grey" stroke-width="2" d="M591.99,-287.794C591.623,-268.125 588.069,-236.067 570.5,-216 564.526,-209.177 523.269,-193.888 487.242,-181.476"/>
<polygon fill="grey" stroke="grey" stroke-width="2" points="488.332,-178.15 477.737,-178.225 486.067,-184.773 488.332,-178.15"/>
</g>
<!-- 20&#45;&gt;13 -->
<g id="edge36" class="edge"><title>20&#45;&gt;13</title>
<path fill="none" stroke="grey" stroke-width="2" d="M575.927,-287.697C568.298,-279.22 558.977,-268.864 550.624,-259.583"/>
<polygon fill="grey" stroke="grey" stroke-width="2" points="553.185,-257.196 543.894,-252.104 547.982,-261.879 553.185,-257.196"/>
</g>
<!-- 21&#45;&gt;2 -->
<g id="edge21" class="edge"><title>21&#45;&gt;2</title>
<path fill="none" stroke="grey" stroke-width="2" d="M720.161,-287.944C712.833,-267.484 697.627,-233.73 672.5,-216 605.128,-168.461 570.634,-199.433 490.5,-180 489.594,-179.78 488.68,-179.556 487.761,-179.327"/>
<polygon fill="grey" stroke="grey" stroke-width="2" points="488.337,-175.86 477.779,-176.738 486.58,-182.636 488.337,-175.86"/>
</g>
<!-- 21&#45;&gt;14 -->
<g id="edge37" class="edge"><title>21&#45;&gt;14</title>
<path fill="none" stroke="grey" stroke-width="2" d="M733.41,-287.697C737.053,-279.728 741.454,-270.1 745.494,-261.264"/>
<polygon fill="grey" stroke="grey" stroke-width="2" points="748.706,-262.654 749.681,-252.104 742.34,-259.744 748.706,-262.654"/>
</g>
<!-- 22&#45;&gt;2 -->
<g id="edge22" class="edge"><title>22&#45;&gt;2</title>
<path fill="none" stroke="grey" stroke-width="2" d="M821.806,-287.693C822.303,-267.306 819.656,-233.948 799.5,-216 747.872,-170.026 558.277,-193.616 490.5,-180 489.586,-179.816 488.665,-179.625 487.739,-179.428"/>
<polygon fill="grey" stroke="grey" stroke-width="2" points="488.234,-175.949 477.701,-177.091 486.647,-182.767 488.234,-175.949"/>
</g>
<!-- 22&#45;&gt;14 -->
<g id="edge38" class="edge"><title>22&#45;&gt;14</title>
<path fill="none" stroke="grey" stroke-width="2" d="M804.927,-287.697C797.298,-279.22 787.977,-268.864 779.624,-259.583"/>
<polygon fill="grey" stroke="grey" stroke-width="2" points="782.185,-257.196 772.894,-252.104 776.982,-261.879 782.185,-257.196"/>
</g>
<!-- 23 -->
<g id="node24" class="node"><title>23</title>
<path fill="none" stroke="#56d8d8" stroke-width="2" d="M416,-468C416,-468 309,-468 309,-468 303,-468 297,-462 297,-456 297,-456 297,-444 297,-444 297,-438 303,-432 309,-432 309,-432 416,-432 416,-432 422,-432 428,-438 428,-444 428,-444 428,-456 428,-456 428,-462 422,-468 416,-468"/>
<text text-anchor="middle" x="362.5" y="-453" font-family="sans" font-size="10.00">find_adapters</text>
<text text-anchor="middle" x="362.5" y="-442" font-family="sans" font-size="10.00">sample: Sample_99669</text>
</g>
<!-- 23&#45;&gt;7 -->
<g id="edge27" class="edge"><title>23&#45;&gt;7</title>
<path fill="none" stroke="grey" stroke-width="2" d="M362.5,-431.697C362.5,-423.983 362.5,-414.712 362.5,-406.112"/>
<polygon fill="grey" stroke="grey" stroke-width="2" points="366,-406.104 362.5,-396.104 359,-406.104 366,-406.104"/>
</g>
<!-- 24 -->
<g id="node25" class="node"><title>24</title>
<path fill="none" stroke="#56d8d8" stroke-width="2" d="M187,-468C187,-468 80,-468 80,-468 74,-468 68,-462 68,-456 68,-456 68,-444 68,-444 68,-438 74,-432 80,-432 80,-432 187,-432 187,-432 193,-432 199,-438 199,-444 199,-444 199,-456 199,-456 199,-462 193,-468 187,-468"/>
<text text-anchor="middle" x="133.5" y="-453" font-family="sans" font-size="10.00">find_adapters</text>
<text text-anchor="middle" x="133.5" y="-442" font-family="sans" font-size="10.00">sample: Sample_99670</text>
</g>
<!-- 24&#45;&gt;8 -->
<g id="edge28" class="edge"><title>24&#45;&gt;8</title>
<path fill="none" stroke="grey" stroke-width="2" d="M133.5,-431.697C133.5,-423.983 133.5,-414.712 133.5,-406.112"/>
<polygon fill="grey" stroke="grey" stroke-width="2" points="137,-406.104 133.5,-396.104 130,-406.104 137,-406.104"/>
</g>
<!-- 25 -->
<g id="node26" class="node"><title>25</title>
<path fill="none" stroke="#56d8d8" stroke-width="2" d="M645,-468C645,-468 538,-468 538,-468 532,-468 526,-462 526,-456 526,-456 526,-444 526,-444 526,-438 532,-432 538,-432 538,-432 645,-432 645,-432 651,-432 657,-438 657,-444 657,-444 657,-456 657,-456 657,-462 651,-468 645,-468"/>
<text text-anchor="middle" x="591.5" y="-453" font-family="sans" font-size="10.00">find_adapters</text>
<text text-anchor="middle" x="591.5" y="-442" font-family="sans" font-size="10.00">sample: Sample_99671</text>
</g>
<!-- 25&#45;&gt;9 -->
<g id="edge29" class="edge"><title>25&#45;&gt;9</title>
<path fill="none" stroke="grey" stroke-width="2" d="M591.5,-431.697C591.5,-423.983 591.5,-414.712 591.5,-406.112"/>
<polygon fill="grey" stroke="grey" stroke-width="2" points="595,-406.104 591.5,-396.104 588,-406.104 595,-406.104"/>
</g>
<!-- 26 -->
<g id="node27" class="node"><title>26</title>
<path fill="none" stroke="#56d8d8" stroke-width="2" d="M874,-468C874,-468 767,-468 767,-468 761,-468 755,-462 755,-456 755,-456 755,-444 755,-444 755,-438 761,-432 767,-432 767,-432 874,-432 874,-432 880,-432 886,-438 886,-444 886,-444 886,-456 886,-456 886,-462 880,-468 874,-468"/>
<text text-anchor="middle" x="820.5" y="-453" font-family="sans" font-size="10.00">find_adapters</text>
<text text-anchor="middle" x="820.5" y="-442" font-family="sans" font-size="10.00">sample: Sample_99672</text>
</g>
<!-- 26&#45;&gt;10 -->
<g id="edge30" class="edge"><title>26&#45;&gt;10</title>
<path fill="none" stroke="grey" stroke-width="2" d="M820.5,-431.697C820.5,-423.983 820.5,-414.712 820.5,-406.112"/>
<polygon fill="grey" stroke="grey" stroke-width="2" points="824,-406.104 820.5,-396.104 817,-406.104 824,-406.104"/>
</g>
</g>
</svg>
